<?xml version="1.0" encoding="utf-8"?>
<!-- Generator: Adobe Illustrator 21.0.2, SVG Export Plug-In . SVG Version: 6.00 Build 0)  -->
<svg version="1.1" xmlns="http://www.w3.org/2000/svg" xmlns:xlink="http://www.w3.org/1999/xlink" x="0px" y="0px"
	 viewBox="0 0 252 308" style="enable-background:new 0 0 252 308;" xml:space="preserve">
<style type="text/css">
	.st0{fill:#CE9B57;}
	.st1{fill:#DDAC64;}
	.st2{fill:#EFCA83;}
	.st3{fill:#E0B063;}
	.st4{fill:#F9CF8C;}
	.st5{fill:#935B2A;}
	.st6{fill:#844719;}
	.st7{fill:#A06335;}
	.st8{fill:#898790;}
	.st9{fill:#56565B;}
	.st10{fill:#A3A2AA;}
</style>
<g id="BACKGROUND">
</g>
<g id="OBJECTS">
	<g id="XMLID_1_">
		<path id="XMLID_28_" class="st0" d="M59.9,95.5c-10.1,0.9-18.1,9.4-18.1,19.7c0,10.4,8,18.9,18.1,19.7V95.5z"/>
		<g id="XMLID_25_">
			<path id="XMLID_27_" class="st1" d="M191,95.5c10.1,0.9,18.1,9.4,18.1,19.7c0,10.4-8,18.9-18.1,19.7V95.5z"/>
			<path id="XMLID_26_" class="st1" d="M148,204.3c-0.7,1.1-1.4,2.4-2.1,3.9c0,0,0,0-0.1,0.1c0,0,0,0,0,0c0,0,0,0.1-0.1,0.1
				c0,0,0,0,0,0c0,0.1-0.1,0.1-0.1,0.2c0,0,0,0,0,0c-0.2,0.3-0.4,0.8-0.7,1.3c-0.1,0.1-0.1,0.3-0.2,0.4c-0.1,0.1-0.1,0.3-0.2,0.4
				c-8,15.2-15.6,18.9-22,17.4c0,0-0.1,0-0.1,0c-0.4-0.1-0.7-0.2-1.1-0.3c-2.9-1-5.5-3-7.8-5.4c0,0,0,0,0,0
				c-0.6-0.7-1.3-1.4-1.9-2.1c0,0,0-0.1-0.1-0.1c-0.3-0.3-0.5-0.7-0.8-1c-0.1-0.1-0.1-0.2-0.2-0.2c-0.2-0.3-0.4-0.6-0.6-0.9
				c-0.1-0.2-0.3-0.4-0.4-0.6c-0.1-0.2-0.3-0.4-0.4-0.5c-0.2-0.3-0.4-0.7-0.6-1c0,0,0-0.1-0.1-0.1c-0.7-1.1-1.3-2.1-1.8-3.1
				c-0.2-0.5-0.5-1-0.7-1.4c0,0,0,0,0,0c-0.2-0.4-0.4-0.7-0.5-1.1c-0.1-0.1-0.1-0.2-0.2-0.3c0,0,0,0,0-0.1c-0.1-0.2-0.1-0.3-0.2-0.4
				c-0.1-0.1-0.1-0.2-0.2-0.3c-0.1-0.1-0.1-0.2-0.2-0.3c0-0.1-0.1-0.1-0.1-0.2c-0.2-0.4-0.3-0.6-0.3-0.6c-2.1-3.8-4.1-7.7-6-11.7
				v33.8h0c0.1,23,12,41.6,26.8,41.6c14.7,0,26.7-18.6,26.8-41.6h0v-33.8C150.7,199.1,149.4,201.7,148,204.3z"/>
		</g>
		<path id="XMLID_24_" class="st2" d="M141,11.8c-5.1-1.2-10.4-1.8-15.9-1.8c-33.8,0-61.8,23.8-65.9,54.6c-0.4,2.6-0.5,5.3-0.5,8
			v3.3v68.4v3.3c0,1.2,0,2.3,0.1,3.5h-0.1c0,0,0,0.3,0,1c0,1.7,0.1,3.4,0.1,5c0.9,13.2,7.3,45.4,45.6,67.8c0,0,0.9,0.6,2.4,1.5
			c5.7,3.2,20.7,9.7,37.8-0.7c0.9-0.6,1.4-0.9,1.4-0.9c0.7-0.5,1.4-0.9,2.1-1.3c36.4-22.4,42.6-53.6,43.5-66.6
			c0.1-1.6,0.1-3.3,0.1-5c0-0.6,0-1,0-1h-0.1c0.1-1.1,0.1-2.3,0.1-3.5v-3.3V75.8v-3.3c0-2.7-0.2-5.4-0.5-8
			c-1.7-12.7-7.5-24.2-16.1-33.4"/>
		<path id="XMLID_23_" class="st3" d="M119,226.3c-1.5-1-2.4-1.5-2.4-1.5C78.3,202.3,72,170.1,71,156.9c-0.1-1.6-0.1-3.3-0.1-5
			c0-0.6,0-1,0-1h0.1c-0.1-1.1-0.1-2.3-0.1-3.5v-3.3V75.8v-3.3c0-2.7,0.2-5.4,0.5-8c3.9-28.9,28.8-51.6,59.8-54.3
			c-2-0.2-4.1-0.3-6.1-0.3c-33.8,0-61.8,23.8-65.9,54.6c-0.4,2.6-0.5,5.3-0.5,8v3.3v68.4v3.3c0,1.2,0,2.3,0.1,3.5h-0.1
			c0,0,0,0.3,0,1c0,1.7,0.1,3.4,0.1,5c0.9,13.2,7.3,45.4,45.6,67.8c0,0,0.9,0.6,2.4,1.5c4.1,2.4,13.3,6.4,24.6,4.4
			C125.8,229.8,121.5,227.7,119,226.3z"/>
		<path id="XMLID_22_" class="st4" d="M109.3,155.6c0,27.4,7.2,53.1,19.8,75.4c4.8-0.5,10-2.1,15.5-5.4c0.9-0.6,1.4-0.9,1.4-0.9
			c0.7-0.5,1.4-0.9,2.1-1.3c36.4-22.4,42.6-53.6,43.5-66.6c0.1-1.6,0.1-3.3,0.1-5c0-0.6,0-1,0-1h-0.1c0.1-1.1,0.1-2.3,0.1-3.5v-3.3
			V75.8v-3.3c0-2.7-0.2-5.4-0.5-8c-1.7-12.7-7.5-24.2-16.1-33.4l-1.2-0.7C134.8,58.3,109.3,104,109.3,155.6z"/>
		<path id="XMLID_21_" class="st5" d="M191.6,151h-0.1c0.1-1.1,0.1-2.3,0.1-3.5v-3.3v-5.3c-2.4,8.4-10,27.6-27.7,27.6
			c-22.8,0-18.5-9.3-38.8-9.3c-20.3,0-16,9.3-38.8,9.3c-17.8,0-25.3-19.1-27.7-27.6v5.3v3.3c0,1.2,0,2.3,0.1,3.5h-0.1c0,0,0,0.3,0,1
			c0,1.7,0.1,3.4,0.1,5c0.9,13.2,7.3,45.4,45.6,67.8c0,0,0.1,0.1,0.3,0.2c0.2,0.1,0.4,0.2,0.7,0.4c0.1,0,0.1,0.1,0.2,0.1
			c0.3,0.2,0.8,0.5,1.2,0.8c5.7,3.2,20.7,9.7,37.9-0.7c0.1,0,0.1-0.1,0.2-0.1c0.1,0,0.1-0.1,0.2-0.1c0.3-0.2,0.5-0.3,0.7-0.4
			c0.2-0.1,0.3-0.2,0.3-0.2c0.7-0.5,1.4-0.9,2.1-1.3c36.4-22.4,42.6-53.6,43.5-66.6c0.1-1.6,0.1-3.3,0.1-5
			C191.6,151.3,191.6,151,191.6,151z"/>
		<path id="XMLID_20_" class="st6" d="M104.6,224.9C104.6,224.9,104.6,224.9,104.6,224.9c0.1,0,0.1,0.1,0.2,0.1c0,0,0.1,0,0.1,0.1
			c0.1,0,0.1,0.1,0.2,0.1c0,0,0.1,0.1,0.1,0.1c0,0,0,0,0,0c0.2,0.1,0.4,0.3,0.7,0.4c0,0,0.1,0,0.1,0.1c0.2,0.1,0.4,0.3,0.6,0.4
			c0.2,0.1,0.3,0.2,0.5,0.3c0,0,0.1,0,0.1,0.1c0.1,0.1,0.3,0.2,0.4,0.2c0.1,0,0.1,0.1,0.2,0.1c0.2,0.1,0.4,0.2,0.6,0.3
			c0.1,0,0.1,0.1,0.2,0.1c0.1,0.1,0.3,0.1,0.5,0.2c0.1,0,0.2,0.1,0.3,0.1c0.1,0.1,0.3,0.1,0.4,0.2c0.1,0,0.2,0.1,0.3,0.1
			c0.2,0.1,0.4,0.2,0.6,0.3c0.1,0.1,0.3,0.1,0.4,0.2c0.1,0,0.2,0.1,0.3,0.1c0.2,0.1,0.3,0.1,0.5,0.2c0.1,0,0.1,0.1,0.2,0.1
			c0.6,0.2,1.2,0.4,1.9,0.6c0,0,0.1,0,0.1,0c4.6,1.5,10.5,2.4,17.2,1.2c-5.5-1-9.8-3-12.3-4.4c-1.5-1-2.4-1.5-2.4-1.5
			c-34.9-20.4-43.3-49-45.2-63.9c-7.4-6.3-11.1-16.4-12.7-21.9v5.3v3.3c0,1.2,0,2.3,0.1,3.5h-0.1c0,0,0,0.3,0,1c0,1.7,0.1,3.4,0.1,5
			c0.9,13.2,7.3,45.4,45.6,67.8C104.3,224.8,104.4,224.8,104.6,224.9C104.6,224.9,104.6,224.9,104.6,224.9z"/>
		<path id="XMLID_19_" class="st7" d="M191.5,151c0.1-1.1,0.1-2.3,0.1-3.5v-3.3v-5.3c-2.4,8.4-10,27.6-27.7,27.6
			c-22.8,0-18.5-9.3-38.8-9.3c-8.1,0-12.2,1.5-15.8,3.2c0.8,25.6,7.9,49.6,19.7,70.6c4.8-0.5,10.1-2.1,15.5-5.4
			c0.1,0,0.1-0.1,0.2-0.1c0.1,0,0.1-0.1,0.2-0.1c0.3-0.2,0.5-0.3,0.7-0.4c0.2-0.1,0.3-0.2,0.3-0.2c0.7-0.5,1.4-0.9,2.1-1.3
			c36.4-22.4,42.6-53.6,43.5-66.6c0.1-1.6,0.1-3.3,0.1-5c0-0.6,0-1,0-1L191.5,151L191.5,151z"/>
		<path id="XMLID_18_" class="st5" d="M157.9,18.1c-9.7-5.2-20.8-8.1-32.7-8.1c-33.8,0-61.8,23.8-65.9,54.6c-0.4,2.6-0.5,5.3-0.5,8
			v3.3v1.8c25.9,4,62.3-8.3,89.7-16.2c41.3-11.8,43.2,37.5,43.2,37.5V75.8v-3.3c0-2.7-0.2-5.4-0.5-8c-2-15-9.7-28.3-20.8-38"/>
		<path id="XMLID_17_" class="st6" d="M70.9,78.3v-2.5v-3.3c0-2.7,0.2-5.4,0.5-8c3.9-28.9,28.7-51.6,59.8-54.3c-0.1,0-0.2,0-0.4,0
			c-0.7-0.1-1.5-0.1-2.2-0.1c-0.2,0-0.5,0-0.7,0c-0.9,0-1.8-0.1-2.8-0.1c-33.8,0-61.8,23.8-65.9,54.6c-0.4,2.6-0.5,5.3-0.5,8v3.3
			v1.8C62.6,78.2,66.7,78.4,70.9,78.3z"/>
		<path id="XMLID_16_" class="st7" d="M139.6,63.9c3-0.9,5.9-1.7,8.7-2.5c41.3-11.8,43.2,37.5,43.2,37.5V75.8v-3.3
			c0-2.7-0.2-5.4-0.5-8c-1.8-13.1-7.9-25-17-34.3C160.9,39.6,149.3,51,139.6,63.9z"/>
		<g id="XMLID_12_">
			<circle id="XMLID_15_" class="st8" cx="94.6" cy="118.6" r="9"/>
			<circle id="XMLID_14_" class="st8" cx="155.7" cy="118.6" r="9"/>
			<path id="XMLID_13_" class="st8" d="M191.9,229.6h-24.7h-1h-7.7h-6.6v2.2h0c-0.1,7.3-12,13.3-26.8,13.3
				c-14.7,0-26.7-5.9-26.8-13.3h0v-2.2h-6.6h-7.7h-1H58.4C31.7,229.6,10,251.3,10,278v6.6c0,4.1,3.3,7.4,7.4,7.4h43.6h15h157
				c4.1,0,7.4-3.3,7.4-7.4V278C240.3,251.3,218.6,229.6,191.9,229.6z"/>
		</g>
		<g id="XMLID_9_">
			<path id="XMLID_11_" class="st1" d="M134.7,182.2h-19c-2.5,0-4.6-2.1-4.6-4.6c0-2.5,2.1-4.6,4.6-4.6h19c2.5,0,4.6,2.1,4.6,4.6
				C139.3,180.1,137.2,182.2,134.7,182.2z"/>
			<path id="XMLID_10_" class="st1" d="M125.1,147.2c-2.5,0-4.6-2.1-4.6-4.6v-12.4c0-2.5,2.1-4.6,4.6-4.6c2.5,0,4.6,2.1,4.6,4.6
				v12.4C129.7,145.2,127.7,147.2,125.1,147.2z"/>
		</g>
		<g id="XMLID_6_">
			<path id="XMLID_8_" class="st5" d="M107.6,102.7c-0.9,0-1.8-0.3-2.6-0.8c-10.1-6.9-20.7-1.3-21.1-1c-2.2,1.2-5,0.4-6.2-1.8
				c-1.2-2.2-0.4-5,1.8-6.2c0.6-0.4,15.9-8.6,30.8,1.5c2.1,1.4,2.6,4.3,1.2,6.4C110.5,102,109.1,102.7,107.6,102.7z"/>
			<path id="XMLID_7_" class="st5" d="M143.4,102.7c-1.5,0-2.9-0.7-3.8-2c-1.4-2.1-0.9-5,1.2-6.4c14.8-10.1,30.1-1.9,30.8-1.5
				c2.2,1.2,3,4,1.8,6.2c-1.2,2.2-4,3-6.2,1.8c-0.5-0.3-11.1-5.8-21.1,1C145.2,102.4,144.3,102.7,143.4,102.7z"/>
		</g>
		<path id="XMLID_5_" class="st9" d="M22.8,284.4v-6.6c0-26.7,21.7-48.4,48.4-48.4H58.4C31.7,229.3,10,251,10,277.8v6.6
			c0,4.1,3.3,7.4,7.4,7.4h12.8C26.1,291.7,22.8,288.4,22.8,284.4z"/>
		<path id="XMLID_4_" class="st10" d="M191.9,229.3h-24.7h-1h-7.7h-6.6v2.2h0c-0.1,4.7-4.9,8.8-12.3,11.1
			c13.4,20.2,31.4,37.1,52.6,49.1h40.7c4.1,0,7.4-3.3,7.4-7.4v-6.6C240.3,251,218.6,229.3,191.9,229.3z"/>
	</g>
</g>
<g id="DESIGNED_BY_FREEPIK">
</g>
</svg>
